<?xml version="1.0" encoding="utf-8"?>
<!-- Generator: Adobe Illustrator 18.1.1, SVG Export Plug-In . SVG Version: 6.00 Build 0)  -->
<svg version="1.1" id="Layer_1" xmlns="http://www.w3.org/2000/svg" xmlns:xlink="http://www.w3.org/1999/xlink" x="0px" y="0px"
	 viewBox="-410.4 245 63.7 72" enable-background="new -410.4 245 63.7 72" xml:space="preserve">
<g id="Layer_1_1_">
	<polygon fill="#72B730" points="-346.7,268.5 -346.7,260.9 -354.7,252.1 -367.8,281 -354.7,309.8 -346.7,301.1 -346.7,293.5 
		-349.4,295.3 -349.4,291.6 -346.7,290.3 -346.7,282.6 -349.4,282.7 -349.4,279.3 -346.7,279.4 -346.7,271.9 -349.4,270.5 
		-349.4,268 	"/>
	<polygon fill="#8FCE52" points="-369,317 -354.7,309.9 -354.7,252.1 -369,245 -385.2,281.6 	"/>
	<polygon fill="#72B730" points="-389,317 -369,317 -369,245 -389,245 -399.3,281.6 	"/>
	<polygon fill="#5C9922" points="-389,317 -403.4,309.9 -407.9,281.6 -403.4,252.1 -389,245 	"/>
	<polygon fill="#426D19" points="-349.4,291.6 -354.7,294.2 -369,297.3 -378.7,297.3 -389,297.3 -403,294.2 -403.2,294.2 
		-403.4,294.2 -403.4,283.3 -389,284.3 -378.7,284.3 -369,284.3 -354.7,283.3 -346.7,282.6 -349.4,282.6 -349.4,279.4 -346.8,279.4 
		-354.7,278.8 -369,278.3 -378.7,278.3 -388.9,278.3 -403.4,278.7 -403.4,267.7 -403.2,267.7 -388.9,264.3 -378.7,264.3 -369,264.3 
		-354.7,267.7 -349.4,270.5 -349.4,268.7 -346.7,268.5 -354.7,262.9 -369,258.3 -378.7,258.3 -388.9,258.3 -403.4,263.1 
		-403.4,252.1 -410.4,260.9 -410.4,268.5 -408.4,268.7 -408.4,270.6 -410.4,271.8 -410.4,279.4 -408.4,279.4 -408.4,282.6 
		-410.4,282.6 -410.4,290.2 -408.4,291.4 -408.4,293.3 -410.4,293.5 -410.4,301.1 -403.4,309.8 -403.4,298.9 -389,303.3 
		-378.7,303.3 -369,303.3 -354.7,298.9 -346.7,293.5 -349.4,293.3 	"/>
</g>
<g id="Layer_2">
</g>
</svg>
