<?xml version="1.0" encoding="utf-8"?>
<!-- Generator: Adobe Illustrator 19.2.1, SVG Export Plug-In . SVG Version: 6.00 Build 0)  -->
<svg version="1.1" id="Layer_1" xmlns="http://www.w3.org/2000/svg" xmlns:xlink="http://www.w3.org/1999/xlink" x="0px" y="0px"
	 viewBox="0 0 181 205" style="enable-background:new 0 0 181 205;" xml:space="preserve">
<style type="text/css">
	.st0{fill:#4CAF50;}
	.st1{fill:#FFFFFF;}
</style>
<title>Group</title>
<desc>Created with Sketch.</desc>
<g id="Page-1">
	<g id="Group" transform="translate(0.000000, -2.000000)">
		<path id="Polygon-1" class="st0" d="M81.8,5c4.8-2.8,12.5-2.8,17.3,0l73.2,42.3c4.8,2.8,8.7,9.5,8.7,15v84.5
			c0,5.5-3.9,12.2-8.7,15L99.2,204c-4.8,2.8-12.5,2.8-17.3,0L8.7,161.7c-4.8-2.8-8.7-9.5-8.7-15V62.2c0-5.5,3.9-12.2,8.7-15L81.8,5z
			"/>
		<polygon class="st1" points="90.2,22.3 19,63.4 19,104.5 36,104.5 36,73.4 90.4,42 144.8,73.4 144.8,136.3 90.4,167.7 36,136.3 
			36,135 19,135 19,145.7 90.2,186.8 161.4,145.7 161.4,63.4 		"/>
	</g>
</g>
</svg>
